<svg width="510" height="475" viewBox="0 0 510 475" fill="none" xmlns="http://www.w3.org/2000/svg">
<g clip-path="url(#clip0_73_2)">
<path d="M459.501 247.312C459.567 305.998 438.371 362.426 400.368 404.735C398.077 407.302 395.724 409.807 393.309 412.251C389.63 415.996 385.827 419.596 381.901 423.051C345.172 455.435 299.32 473.632 251.742 474.708C250.156 474.746 248.565 474.766 246.968 474.766C209.023 474.766 161.298 453.076 117.987 423.051C114.404 420.567 110.852 418.025 107.333 415.426C105.688 414.223 104.051 413.002 102.422 411.764C85.7172 399.141 69.8615 385.279 54.9713 370.28C45.2221 360.488 36.0799 350.027 27.603 338.962C-5.6756 295.032 -13.0157 255.449 34.4286 247.312C40.0458 246.351 45.4976 245.325 50.7838 244.232C58.4409 242.657 65.769 240.957 72.7681 239.13C82.1959 236.678 91.0535 234.019 99.3408 231.153C102.128 230.193 104.852 229.213 107.512 228.215C146.839 213.433 173.16 194.156 191.077 173.241C194.116 169.701 196.917 166.118 199.482 162.493C203.405 156.974 206.969 151.173 210.148 145.13C214.535 136.735 218.221 127.941 221.161 118.851L221.322 118.351C235.578 74.3444 231.241 33.5257 246.968 19.864C314.195 -38.5408 397.891 44.6331 437.176 142.717C439.156 147.659 441.018 152.631 442.763 157.633C443.547 159.868 444.302 162.106 445.03 164.349C446.945 170.194 448.681 176.054 450.241 181.929C450.839 184.169 451.409 186.408 451.952 188.644C452.532 191.058 453.088 193.465 453.603 195.872C457.425 213.497 459.501 230.878 459.501 247.312Z" fill="#F2F2F2"/>
<path d="M251.742 474.708C250.156 474.746 248.565 474.766 246.968 474.766C209.023 474.766 161.298 453.076 117.987 423.051C114.404 420.567 110.852 418.025 107.333 415.426L110.42 395.324L203.867 382.046L250.767 420.426L251.742 474.708Z" fill="#2F2E41"/>
<path d="M256.24 115.758H242.924C242.511 115.759 242.116 115.934 241.824 116.246C241.533 116.558 241.369 116.981 241.369 117.423V131.68C241.369 131.898 241.409 132.114 241.488 132.316C241.566 132.517 241.68 132.7 241.825 132.854C241.969 133.008 242.141 133.13 242.329 133.213C242.518 133.296 242.72 133.339 242.924 133.338H256.24C256.652 133.338 257.046 133.164 257.338 132.853C257.63 132.542 257.794 132.12 257.796 131.68V117.423C257.794 116.982 257.63 116.559 257.339 116.247C257.047 115.935 256.652 115.76 256.24 115.758Z" fill="white"/>
<path d="M256.24 140.054H242.924C242.511 140.054 242.116 140.229 241.824 140.541C241.533 140.854 241.369 141.277 241.369 141.718V155.975C241.369 156.194 241.409 156.41 241.488 156.611C241.566 156.813 241.68 156.995 241.825 157.15C241.969 157.304 242.141 157.426 242.329 157.509C242.518 157.592 242.72 157.634 242.924 157.633H256.24C256.652 157.634 257.046 157.459 257.338 157.148C257.63 156.838 257.794 156.416 257.796 155.975V141.718C257.794 141.277 257.63 140.855 257.339 140.543C257.047 140.231 256.652 140.055 256.24 140.054Z" fill="#E6E6E6"/>
<path d="M256.24 164.349H242.924C242.511 164.349 242.116 164.525 241.824 164.837C241.533 165.149 241.369 165.572 241.369 166.014V180.264C241.368 180.483 241.408 180.7 241.486 180.902C241.564 181.104 241.679 181.288 241.823 181.442C241.968 181.597 242.139 181.719 242.328 181.803C242.517 181.886 242.72 181.929 242.924 181.929H256.24C256.653 181.928 257.048 181.753 257.34 181.441C257.631 181.129 257.795 180.706 257.796 180.264V166.014C257.794 165.572 257.63 165.15 257.339 164.838C257.047 164.526 256.652 164.35 256.24 164.349Z" fill="#E6E6E6"/>
<path d="M257.772 190.014C257.705 189.631 257.516 189.284 257.236 189.034C256.957 188.784 256.604 188.646 256.24 188.644H242.924C242.511 188.645 242.116 188.82 241.824 189.132C241.533 189.444 241.369 189.867 241.369 190.309V204.559C241.368 204.778 241.408 204.995 241.486 205.197C241.564 205.399 241.679 205.583 241.823 205.737C241.968 205.892 242.139 206.015 242.328 206.098C242.517 206.182 242.72 206.224 242.924 206.224H256.24C256.653 206.224 257.048 206.048 257.34 205.736C257.631 205.424 257.795 205.001 257.796 204.559V190.309C257.797 190.21 257.789 190.111 257.772 190.014Z" fill="#E6E6E6"/>
<path d="M256.844 213.068C256.653 212.983 256.447 212.939 256.24 212.94H242.924C242.72 212.939 242.517 212.982 242.328 213.065C242.139 213.149 241.968 213.272 241.823 213.426C241.679 213.581 241.564 213.765 241.486 213.967C241.408 214.169 241.368 214.385 241.369 214.604V228.855C241.368 229.074 241.407 229.291 241.485 229.493C241.563 229.695 241.678 229.879 241.822 230.034C241.967 230.189 242.139 230.311 242.328 230.395C242.517 230.478 242.719 230.52 242.924 230.519H256.24C256.653 230.519 257.048 230.344 257.34 230.032C257.631 229.719 257.795 229.296 257.796 228.855V214.604C257.795 214.277 257.704 213.956 257.535 213.683C257.366 213.41 257.126 213.196 256.844 213.068Z" fill="#E6E6E6"/>
<path d="M284.213 115.758H270.896C270.484 115.759 270.088 115.934 269.797 116.246C269.505 116.558 269.341 116.981 269.341 117.423V131.68C269.341 131.898 269.382 132.114 269.46 132.316C269.538 132.517 269.653 132.7 269.797 132.854C269.942 133.008 270.113 133.13 270.302 133.213C270.49 133.296 270.692 133.339 270.896 133.338H284.213C284.624 133.338 285.019 133.164 285.31 132.853C285.602 132.542 285.767 132.12 285.768 131.68V117.423C285.767 116.982 285.603 116.559 285.311 116.247C285.02 115.935 284.625 115.76 284.213 115.758Z" fill="#E6E6E6"/>
<path d="M284.213 140.054H270.896C270.484 140.054 270.088 140.229 269.797 140.541C269.505 140.854 269.341 141.277 269.341 141.718V155.975C269.341 156.194 269.382 156.41 269.46 156.611C269.538 156.813 269.653 156.995 269.797 157.15C269.942 157.304 270.113 157.426 270.302 157.509C270.49 157.592 270.692 157.634 270.896 157.633H284.213C284.624 157.634 285.019 157.459 285.31 157.148C285.602 156.838 285.767 156.416 285.768 155.975V141.718C285.767 141.277 285.603 140.855 285.311 140.543C285.02 140.231 284.625 140.055 284.213 140.054Z" fill="#BF2554"/>
<path d="M284.213 164.349H270.896C270.484 164.349 270.088 164.525 269.797 164.837C269.505 165.149 269.341 165.572 269.341 166.014V180.264C269.341 180.483 269.381 180.7 269.459 180.902C269.537 181.104 269.651 181.288 269.796 181.442C269.94 181.597 270.112 181.719 270.301 181.803C270.49 181.886 270.692 181.929 270.896 181.929H284.213C284.625 181.928 285.021 181.753 285.312 181.441C285.604 181.129 285.768 180.706 285.768 180.264V166.014C285.767 165.572 285.603 165.15 285.311 164.838C285.02 164.526 284.625 164.35 284.213 164.349Z" fill="#BF2554"/>
<path d="M284.213 188.644H270.896C270.57 188.645 270.253 188.755 269.988 188.959C269.724 189.164 269.527 189.452 269.425 189.784C269.369 189.953 269.341 190.13 269.341 190.309V204.559C269.341 204.778 269.381 204.995 269.459 205.197C269.537 205.399 269.651 205.583 269.796 205.737C269.94 205.892 270.112 206.015 270.301 206.098C270.49 206.182 270.692 206.224 270.896 206.224H284.213C284.625 206.224 285.021 206.048 285.312 205.736C285.604 205.424 285.768 205.001 285.768 204.559V190.309C285.767 189.868 285.602 189.445 285.311 189.133C285.02 188.821 284.625 188.646 284.213 188.644Z" fill="#BF2554"/>
<path d="M284.213 212.94H270.896C270.692 212.939 270.49 212.982 270.301 213.065C270.112 213.149 269.94 213.272 269.796 213.426C269.651 213.581 269.537 213.765 269.459 213.967C269.381 214.169 269.341 214.385 269.341 214.604V228.855C269.341 229.074 269.381 229.29 269.459 229.492C269.537 229.694 269.651 229.878 269.796 230.033C269.94 230.187 270.112 230.31 270.301 230.394C270.49 230.477 270.692 230.52 270.896 230.519H284.213C284.625 230.519 285.021 230.344 285.312 230.032C285.604 229.719 285.768 229.296 285.768 228.855V214.604C285.768 214.163 285.604 213.739 285.312 213.427C285.021 213.115 284.625 212.94 284.213 212.94Z" fill="#E6E6E6"/>
<path d="M312.185 115.758H298.869C298.456 115.759 298.061 115.934 297.769 116.246C297.478 116.558 297.314 116.981 297.314 117.423V131.68C297.314 131.898 297.354 132.114 297.433 132.316C297.511 132.517 297.625 132.7 297.77 132.854C297.914 133.008 298.086 133.13 298.274 133.213C298.463 133.296 298.665 133.339 298.869 133.338H312.185C312.597 133.338 312.991 133.164 313.283 132.853C313.574 132.542 313.739 132.12 313.74 131.68V117.423C313.739 116.982 313.575 116.559 313.283 116.247C312.992 115.935 312.597 115.76 312.185 115.758Z" fill="#BF2554"/>
<path d="M312.185 140.054H298.869C298.456 140.054 298.061 140.229 297.769 140.541C297.478 140.854 297.314 141.277 297.314 141.718V155.975C297.314 156.194 297.354 156.41 297.433 156.611C297.511 156.813 297.625 156.995 297.77 157.15C297.914 157.304 298.086 157.426 298.274 157.509C298.463 157.592 298.665 157.634 298.869 157.633H312.185C312.597 157.634 312.991 157.459 313.283 157.148C313.574 156.838 313.739 156.416 313.74 155.975V141.718C313.739 141.277 313.575 140.855 313.284 140.543C312.992 140.231 312.597 140.055 312.185 140.054Z" fill="#BF2554"/>
<path d="M312.185 164.349H298.869C298.456 164.349 298.061 164.525 297.769 164.837C297.478 165.149 297.314 165.572 297.314 166.014V180.264C297.313 180.483 297.353 180.7 297.431 180.902C297.509 181.104 297.624 181.288 297.768 181.442C297.913 181.597 298.084 181.719 298.273 181.803C298.462 181.886 298.665 181.929 298.869 181.929H312.185C312.597 181.928 312.993 181.753 313.285 181.441C313.576 181.129 313.74 180.706 313.74 180.264V166.014C313.739 165.572 313.575 165.15 313.284 164.838C312.992 164.526 312.597 164.35 312.185 164.349Z" fill="#E6E6E6"/>
<path d="M312.185 188.644H298.869C298.456 188.645 298.061 188.82 297.769 189.132C297.478 189.444 297.314 189.867 297.314 190.309V204.559C297.313 204.778 297.353 204.995 297.431 205.197C297.509 205.399 297.624 205.583 297.768 205.737C297.913 205.892 298.084 206.015 298.273 206.098C298.462 206.182 298.664 206.224 298.869 206.224H312.185C312.597 206.224 312.993 206.048 313.285 205.736C313.576 205.424 313.74 205.001 313.74 204.559V190.309C313.739 189.868 313.575 189.445 313.284 189.133C312.992 188.821 312.597 188.646 312.185 188.644Z" fill="#BF2554"/>
<path d="M312.185 212.94H298.869C298.665 212.939 298.462 212.982 298.273 213.065C298.084 213.149 297.913 213.272 297.768 213.426C297.624 213.581 297.509 213.765 297.431 213.967C297.353 214.169 297.313 214.385 297.314 214.604V228.855C297.313 229.074 297.353 229.29 297.431 229.492C297.509 229.694 297.624 229.878 297.768 230.033C297.913 230.187 298.084 230.31 298.273 230.394C298.462 230.477 298.664 230.52 298.869 230.519H312.185C312.597 230.519 312.993 230.344 313.285 230.032C313.576 229.719 313.74 229.296 313.74 228.855V214.604C313.74 214.163 313.576 213.739 313.285 213.427C312.993 213.115 312.597 212.94 312.185 212.94Z" fill="#BF2554"/>
<path d="M340.157 115.758H326.841C326.429 115.759 326.033 115.934 325.742 116.246C325.45 116.558 325.286 116.981 325.286 117.423V131.68C325.286 131.898 325.326 132.114 325.405 132.316C325.483 132.517 325.598 132.7 325.742 132.854C325.887 133.008 326.058 133.13 326.247 133.213C326.435 133.296 326.637 133.339 326.841 133.338H340.157C340.569 133.338 340.964 133.164 341.255 132.853C341.547 132.542 341.711 132.12 341.713 131.68V117.423C341.712 116.982 341.547 116.559 341.256 116.247C340.964 115.935 340.57 115.76 340.157 115.758Z" fill="#BF2554"/>
<path d="M340.157 140.054H326.841C326.429 140.054 326.033 140.229 325.742 140.541C325.45 140.854 325.286 141.277 325.286 141.718V155.975C325.286 156.194 325.326 156.41 325.405 156.611C325.483 156.813 325.598 156.996 325.742 157.15C325.887 157.304 326.058 157.426 326.247 157.509C326.435 157.592 326.637 157.634 326.841 157.633H340.157C340.569 157.634 340.964 157.459 341.255 157.148C341.547 156.838 341.711 156.416 341.713 155.975V141.718C341.712 141.277 341.547 140.855 341.256 140.543C340.964 140.231 340.57 140.055 340.157 140.054Z" fill="white"/>
<path d="M340.157 164.349H326.841C326.429 164.349 326.033 164.525 325.742 164.837C325.45 165.149 325.286 165.572 325.286 166.014V180.264C325.285 180.483 325.325 180.7 325.403 180.902C325.481 181.104 325.596 181.288 325.74 181.442C325.885 181.597 326.057 181.719 326.245 181.803C326.434 181.886 326.637 181.929 326.841 181.929H340.157C340.57 181.928 340.965 181.753 341.257 181.441C341.549 181.129 341.713 180.706 341.713 180.264V166.014C341.712 165.572 341.547 165.15 341.256 164.838C340.964 164.526 340.57 164.35 340.157 164.349Z" fill="white"/>
<path d="M340.157 188.644H326.841C326.429 188.645 326.033 188.82 325.742 189.132C325.45 189.444 325.286 189.867 325.286 190.309V204.559C325.285 204.778 325.325 204.995 325.403 205.197C325.481 205.399 325.596 205.583 325.74 205.737C325.885 205.892 326.057 206.015 326.245 206.098C326.434 206.182 326.637 206.224 326.841 206.224H340.157C340.57 206.224 340.965 206.048 341.257 205.736C341.549 205.424 341.713 205.001 341.713 204.559V190.309C341.712 189.868 341.547 189.445 341.256 189.133C340.964 188.821 340.57 188.646 340.157 188.644Z" fill="#E6E6E6"/>
<path d="M340.157 212.94H326.841C326.637 212.939 326.434 212.982 326.245 213.065C326.057 213.149 325.885 213.272 325.74 213.426C325.596 213.581 325.481 213.765 325.403 213.967C325.325 214.169 325.285 214.385 325.286 214.604V228.855C325.285 229.074 325.325 229.29 325.403 229.492C325.481 229.694 325.596 229.878 325.74 230.033C325.885 230.187 326.057 230.31 326.245 230.394C326.434 230.477 326.637 230.52 326.841 230.519H340.157C340.57 230.519 340.965 230.344 341.257 230.032C341.549 229.719 341.713 229.296 341.713 228.855V214.604C341.713 214.163 341.549 213.739 341.257 213.427C340.965 213.115 340.57 212.94 340.157 212.94Z" fill="#BF2554"/>
<path d="M368.13 115.758H354.808C354.396 115.76 354.002 115.936 353.712 116.248C353.421 116.56 353.258 116.982 353.258 117.423V131.68C353.258 132.12 353.422 132.541 353.712 132.852C354.003 133.163 354.397 133.338 354.808 133.338H368.13C368.541 133.338 368.936 133.164 369.228 132.853C369.519 132.542 369.684 132.12 369.685 131.68V117.423C369.684 116.982 369.52 116.559 369.228 116.247C368.937 115.935 368.542 115.76 368.13 115.758Z" fill="white"/>
<path d="M368.13 140.054H354.808C354.396 140.055 354.002 140.231 353.712 140.543C353.421 140.855 353.258 141.278 353.258 141.718V155.975C353.258 156.415 353.422 156.837 353.712 157.148C354.003 157.459 354.397 157.633 354.808 157.633H368.13C368.541 157.634 368.936 157.459 369.228 157.148C369.519 156.838 369.684 156.416 369.685 155.975V141.718C369.684 141.277 369.52 140.855 369.228 140.543C368.937 140.231 368.542 140.055 368.13 140.054Z" fill="white"/>
<path d="M368.13 164.349H354.808C354.396 164.351 354.002 164.527 353.712 164.839C353.421 165.151 353.258 165.573 353.258 166.014V180.264C353.258 180.482 353.297 180.699 353.375 180.9C353.453 181.102 353.567 181.286 353.711 181.44C353.854 181.595 354.025 181.718 354.214 181.801C354.402 181.885 354.604 181.928 354.808 181.929H368.13C368.542 181.928 368.938 181.753 369.229 181.441C369.521 181.129 369.685 180.706 369.685 180.264V166.014C369.684 165.572 369.52 165.15 369.228 164.838C368.937 164.526 368.542 164.35 368.13 164.349Z" fill="white"/>
<path d="M368.13 188.644H354.808C354.396 188.646 354.002 188.822 353.712 189.134C353.421 189.446 353.258 189.868 353.258 190.309V204.56C353.258 204.778 353.297 204.994 353.375 205.196C353.453 205.398 353.567 205.581 353.71 205.736C353.854 205.89 354.025 206.013 354.214 206.097C354.402 206.181 354.604 206.224 354.808 206.224H368.13C368.542 206.224 368.938 206.048 369.229 205.736C369.521 205.424 369.685 205.001 369.685 204.56V190.309C369.684 189.868 369.52 189.445 369.228 189.133C368.937 188.821 368.542 188.646 368.13 188.644Z" fill="#BF2554"/>
<path d="M368.13 212.94H354.808C354.604 212.94 354.402 212.983 354.214 213.067C354.025 213.151 353.854 213.273 353.71 213.428C353.567 213.583 353.453 213.766 353.375 213.968C353.297 214.17 353.258 214.386 353.258 214.604V228.855C353.258 229.073 353.297 229.289 353.375 229.491C353.453 229.693 353.567 229.876 353.71 230.031C353.854 230.186 354.025 230.308 354.214 230.392C354.402 230.476 354.604 230.519 354.808 230.519H368.13C368.542 230.519 368.938 230.344 369.229 230.032C369.521 229.719 369.685 229.296 369.685 228.855V214.604C369.685 214.163 369.521 213.739 369.229 213.427C368.938 213.115 368.542 212.94 368.13 212.94Z" fill="#E6E6E6"/>
<path d="M396.102 115.758H382.78C382.369 115.76 381.975 115.936 381.684 116.248C381.394 116.56 381.231 116.982 381.231 117.423V131.68C381.231 132.12 381.394 132.541 381.685 132.852C381.975 133.163 382.369 133.338 382.78 133.338H396.102C396.514 133.338 396.909 133.164 397.2 132.853C397.492 132.542 397.656 132.12 397.658 131.68V117.423C397.657 116.982 397.492 116.559 397.201 116.247C396.909 115.935 396.515 115.76 396.102 115.758Z" fill="white"/>
<path d="M396.102 140.054H382.78C382.369 140.055 381.975 140.231 381.684 140.543C381.394 140.855 381.231 141.278 381.231 141.718V155.975C381.231 156.415 381.394 156.837 381.685 157.148C381.975 157.459 382.369 157.633 382.78 157.633H396.102C396.514 157.634 396.909 157.459 397.2 157.148C397.492 156.838 397.656 156.416 397.658 155.975V141.718C397.657 141.277 397.492 140.855 397.201 140.543C396.909 140.231 396.515 140.055 396.102 140.054Z" fill="white"/>
<path d="M396.102 164.349H382.78C382.369 164.351 381.975 164.527 381.684 164.839C381.394 165.151 381.231 165.573 381.231 166.014V180.264C381.23 180.482 381.27 180.699 381.348 180.9C381.425 181.102 381.539 181.286 381.683 181.44C381.827 181.595 381.998 181.718 382.186 181.801C382.374 181.885 382.576 181.928 382.78 181.929H396.102C396.515 181.928 396.91 181.753 397.202 181.441C397.494 181.129 397.658 180.706 397.658 180.264V166.014C397.657 165.572 397.492 165.15 397.201 164.838C396.909 164.526 396.515 164.35 396.102 164.349Z" fill="#BF2554"/>
<path d="M396.102 188.644H382.78C382.369 188.646 381.975 188.822 381.684 189.134C381.394 189.446 381.231 189.868 381.231 190.309V204.56C381.23 204.778 381.27 204.994 381.347 205.196C381.425 205.398 381.539 205.581 381.683 205.736C381.827 205.89 381.998 206.013 382.186 206.097C382.374 206.181 382.576 206.224 382.78 206.224H396.102C396.515 206.224 396.91 206.048 397.202 205.736C397.494 205.424 397.658 205.001 397.658 204.56V190.309C397.657 189.868 397.492 189.445 397.201 189.133C396.909 188.821 396.515 188.646 396.102 188.644Z" fill="#E6E6E6"/>
<path d="M396.102 212.94H382.78C382.576 212.94 382.374 212.983 382.186 213.067C381.998 213.151 381.827 213.273 381.683 213.428C381.539 213.583 381.425 213.766 381.347 213.968C381.27 214.17 381.23 214.386 381.231 214.604V228.855C381.23 229.073 381.27 229.289 381.347 229.491C381.425 229.693 381.539 229.876 381.683 230.031C381.827 230.186 381.998 230.308 382.186 230.392C382.374 230.476 382.576 230.519 382.78 230.519H396.102C396.515 230.519 396.91 230.344 397.202 230.032C397.494 229.719 397.658 229.296 397.658 228.855V214.604C397.658 214.163 397.494 213.739 397.202 213.427C396.91 213.115 396.515 212.94 396.102 212.94Z" fill="white"/>
<path d="M424.075 115.758H410.753C410.341 115.76 409.947 115.936 409.656 116.248C409.366 116.56 409.203 116.982 409.203 117.423V131.68C409.203 132.12 409.367 132.541 409.657 132.852C409.948 133.163 410.342 133.338 410.753 133.338H424.075C424.486 133.338 424.881 133.164 425.173 132.853C425.464 132.542 425.629 132.12 425.63 131.68V117.423C425.629 116.982 425.465 116.559 425.173 116.247C424.882 115.935 424.487 115.76 424.075 115.758Z" fill="#BF2554"/>
<path d="M424.075 140.054H410.753C410.341 140.055 409.947 140.231 409.656 140.543C409.366 140.855 409.203 141.278 409.203 141.718V155.975C409.203 156.415 409.367 156.837 409.657 157.148C409.948 157.459 410.342 157.633 410.753 157.633H424.075C424.486 157.634 424.881 157.459 425.173 157.148C425.464 156.838 425.629 156.416 425.63 155.975V141.718C425.629 141.277 425.465 140.855 425.173 140.543C424.882 140.231 424.487 140.055 424.075 140.054Z" fill="#BF2554"/>
<path d="M424.075 164.349H410.753C410.341 164.351 409.947 164.527 409.656 164.839C409.366 165.151 409.203 165.573 409.203 166.014V180.264C409.203 180.482 409.242 180.699 409.32 180.9C409.397 181.102 409.511 181.286 409.655 181.44C409.799 181.595 409.97 181.718 410.159 181.801C410.347 181.885 410.549 181.928 410.753 181.929H424.075C424.487 181.928 424.883 181.753 425.174 181.441C425.466 181.129 425.63 180.706 425.63 180.264V166.014C425.629 165.572 425.465 165.15 425.173 164.838C424.882 164.526 424.487 164.35 424.075 164.349Z" fill="#E6E6E6"/>
<path d="M424.075 188.644H410.753C410.341 188.646 409.947 188.822 409.656 189.134C409.366 189.446 409.203 189.868 409.203 190.309V204.56C409.203 204.778 409.242 204.994 409.32 205.196C409.397 205.398 409.511 205.581 409.655 205.736C409.799 205.89 409.97 206.013 410.159 206.097C410.347 206.181 410.549 206.224 410.753 206.224H424.075C424.487 206.224 424.883 206.048 425.174 205.736C425.466 205.424 425.63 205.001 425.63 204.56V190.309C425.629 189.868 425.465 189.445 425.173 189.133C424.882 188.821 424.487 188.646 424.075 188.644Z" fill="white"/>
<path d="M424.075 212.94H410.753C410.549 212.94 410.347 212.983 410.159 213.067C409.97 213.151 409.799 213.273 409.655 213.428C409.511 213.583 409.397 213.766 409.32 213.968C409.242 214.17 409.203 214.386 409.203 214.604V228.855C409.203 229.073 409.242 229.289 409.32 229.491C409.397 229.693 409.511 229.876 409.655 230.031C409.799 230.186 409.97 230.308 410.159 230.392C410.347 230.476 410.549 230.519 410.753 230.519H424.075C424.487 230.519 424.883 230.344 425.174 230.032C425.466 229.719 425.63 229.296 425.63 228.855V214.604C425.63 214.163 425.466 213.739 425.174 213.427C424.883 213.115 424.487 212.94 424.075 212.94Z" fill="#BF2554"/>
<path d="M452.047 115.758H438.725C438.314 115.76 437.919 115.936 437.629 116.248C437.339 116.56 437.176 116.982 437.176 117.423V131.68C437.176 132.12 437.339 132.541 437.63 132.852C437.92 133.163 438.314 133.338 438.725 133.338H452.047C452.459 133.338 452.854 133.164 453.145 132.853C453.437 132.542 453.601 132.12 453.603 131.68V117.423C453.601 116.982 453.437 116.559 453.146 116.247C452.854 115.935 452.459 115.76 452.047 115.758Z" fill="#BF2554"/>
<path d="M452.047 140.054H438.725C438.314 140.055 437.919 140.231 437.629 140.543C437.338 140.855 437.175 141.278 437.176 141.718V155.975C437.176 156.415 437.339 156.837 437.63 157.148C437.92 157.459 438.314 157.633 438.725 157.633H452.047C452.459 157.634 452.854 157.459 453.145 157.148C453.437 156.838 453.601 156.416 453.603 155.975V141.718C453.601 141.277 453.437 140.855 453.146 140.543C452.854 140.231 452.459 140.055 452.047 140.054Z" fill="#BF2554"/>
<path d="M452.047 164.349H438.725C438.314 164.351 437.919 164.527 437.629 164.839C437.339 165.151 437.176 165.573 437.176 166.014V180.264C437.175 180.482 437.215 180.699 437.292 180.9C437.37 181.102 437.484 181.286 437.628 181.44C437.772 181.595 437.943 181.718 438.131 181.801C438.319 181.885 438.521 181.928 438.725 181.929H452.047C452.46 181.928 452.855 181.753 453.147 181.441C453.438 181.129 453.602 180.706 453.603 180.264V166.014C453.601 165.572 453.437 165.15 453.146 164.838C452.854 164.526 452.459 164.35 452.047 164.349Z" fill="#E6E6E6"/>
<path d="M452.047 188.644H438.725C438.314 188.646 437.919 188.822 437.629 189.134C437.339 189.446 437.176 189.868 437.176 190.309V204.56C437.175 204.778 437.215 204.994 437.292 205.196C437.37 205.398 437.484 205.581 437.628 205.736C437.772 205.89 437.943 206.013 438.131 206.097C438.319 206.181 438.521 206.224 438.725 206.224H452.047C452.46 206.224 452.855 206.048 453.147 205.736C453.438 205.424 453.602 205.001 453.603 204.56V190.309C453.601 189.868 453.437 189.445 453.146 189.133C452.854 188.821 452.459 188.646 452.047 188.644Z" fill="#BF2554"/>
<path d="M452.047 212.94H438.725C438.521 212.94 438.319 212.983 438.131 213.067C437.943 213.151 437.772 213.273 437.628 213.428C437.484 213.583 437.37 213.766 437.292 213.968C437.215 214.17 437.175 214.386 437.176 214.604V228.855C437.175 229.073 437.215 229.289 437.292 229.491C437.37 229.693 437.484 229.876 437.628 230.031C437.772 230.186 437.943 230.308 438.131 230.392C438.319 230.476 438.521 230.519 438.725 230.519H452.047C452.46 230.519 452.855 230.344 453.147 230.032C453.438 229.719 453.602 229.296 453.603 228.855V214.604C453.602 214.163 453.438 213.739 453.147 213.427C452.855 213.115 452.46 212.94 452.047 212.94Z" fill="#BF2554"/>
<path d="M480.02 115.758H466.698C466.286 115.76 465.892 115.936 465.601 116.248C465.311 116.56 465.148 116.982 465.148 117.423V131.68C465.148 132.12 465.312 132.541 465.602 132.852C465.893 133.163 466.287 133.338 466.698 133.338H480.02C480.431 133.338 480.826 133.164 481.118 132.853C481.409 132.542 481.574 132.12 481.575 131.68V117.423C481.574 116.982 481.41 116.559 481.118 116.247C480.827 115.935 480.432 115.76 480.02 115.758Z" fill="#E6E6E6"/>
<path d="M480.02 140.054H466.698C466.286 140.055 465.892 140.231 465.601 140.543C465.311 140.855 465.148 141.278 465.148 141.718V155.975C465.148 156.415 465.312 156.837 465.602 157.148C465.893 157.459 466.287 157.633 466.698 157.633H480.02C480.431 157.634 480.826 157.459 481.118 157.148C481.409 156.838 481.574 156.416 481.575 155.975V141.718C481.574 141.277 481.41 140.855 481.118 140.543C480.827 140.231 480.432 140.055 480.02 140.054Z" fill="#BF2554"/>
<path d="M480.02 164.349H466.698C466.286 164.351 465.892 164.527 465.601 164.839C465.311 165.151 465.148 165.573 465.148 166.014V180.264C465.148 180.482 465.187 180.699 465.265 180.9C465.342 181.102 465.456 181.286 465.6 181.44C465.744 181.595 465.915 181.718 466.104 181.801C466.292 181.885 466.494 181.928 466.698 181.929H480.02C480.432 181.928 480.828 181.753 481.119 181.441C481.411 181.129 481.575 180.706 481.575 180.264V166.014C481.574 165.572 481.41 165.15 481.118 164.838C480.827 164.526 480.432 164.35 480.02 164.349Z" fill="#BF2554"/>
<path d="M480.02 188.644H466.698C466.286 188.646 465.892 188.822 465.601 189.134C465.311 189.446 465.148 189.868 465.148 190.309V204.56C465.148 204.778 465.187 204.994 465.265 205.196C465.342 205.398 465.456 205.581 465.6 205.736C465.744 205.89 465.915 206.013 466.103 206.097C466.292 206.181 466.494 206.224 466.698 206.224H480.02C480.432 206.224 480.828 206.048 481.119 205.736C481.411 205.424 481.575 205.001 481.575 204.56V190.309C481.574 189.868 481.41 189.445 481.118 189.133C480.827 188.821 480.432 188.646 480.02 188.644Z" fill="#BF2554"/>
<path d="M480.02 212.94H466.698C466.494 212.94 466.292 212.983 466.103 213.067C465.915 213.151 465.744 213.273 465.6 213.428C465.456 213.583 465.342 213.766 465.265 213.968C465.187 214.17 465.148 214.386 465.148 214.604V228.855C465.148 229.073 465.187 229.289 465.265 229.491C465.342 229.693 465.456 229.876 465.6 230.031C465.744 230.186 465.915 230.308 466.103 230.392C466.292 230.476 466.494 230.519 466.698 230.519H480.02C480.432 230.519 480.828 230.344 481.119 230.032C481.411 229.719 481.575 229.296 481.575 228.855V214.604C481.575 214.163 481.411 213.739 481.119 213.427C480.828 213.115 480.432 212.94 480.02 212.94Z" fill="#E6E6E6"/>
<path d="M507.992 115.758H494.67C494.258 115.76 493.864 115.936 493.574 116.248C493.283 116.56 493.12 116.982 493.121 117.423V131.68C493.121 132.12 493.284 132.541 493.574 132.852C493.865 133.163 494.259 133.338 494.67 133.338H507.992C508.404 133.338 508.799 133.164 509.09 132.853C509.382 132.542 509.546 132.12 509.548 131.68V117.423C509.546 116.982 509.382 116.559 509.091 116.247C508.799 115.935 508.404 115.76 507.992 115.758Z" fill="#E6E6E6"/>
<path d="M507.992 140.054H494.67C494.258 140.055 493.864 140.231 493.574 140.543C493.283 140.855 493.12 141.278 493.121 141.718V155.975C493.121 156.415 493.284 156.837 493.574 157.148C493.865 157.459 494.259 157.633 494.67 157.633H507.992C508.404 157.634 508.799 157.459 509.09 157.148C509.382 156.838 509.546 156.416 509.548 155.975V141.718C509.546 141.277 509.382 140.855 509.091 140.543C508.799 140.231 508.404 140.055 507.992 140.054Z" fill="#E6E6E6"/>
<path d="M507.992 164.349H494.67C494.258 164.351 493.864 164.527 493.574 164.839C493.283 165.151 493.12 165.573 493.121 166.014V180.264C493.12 180.482 493.16 180.699 493.237 180.9C493.315 181.102 493.429 181.286 493.573 181.44C493.717 181.595 493.888 181.718 494.076 181.801C494.264 181.885 494.466 181.928 494.67 181.929H507.992C508.405 181.928 508.8 181.753 509.092 181.441C509.383 181.129 509.547 180.706 509.548 180.264V166.014C509.546 165.572 509.382 165.15 509.091 164.838C508.799 164.526 508.404 164.35 507.992 164.349Z" fill="#BF2554"/>
<path d="M507.992 188.644H494.67C494.258 188.646 493.864 188.822 493.574 189.134C493.283 189.446 493.12 189.868 493.121 190.309V204.56C493.12 204.778 493.16 204.994 493.237 205.196C493.315 205.398 493.429 205.581 493.573 205.736C493.717 205.89 493.888 206.013 494.076 206.097C494.264 206.181 494.466 206.224 494.67 206.224H507.992C508.405 206.224 508.8 206.048 509.092 205.736C509.383 205.424 509.547 205.001 509.548 204.56V190.309C509.546 189.868 509.382 189.445 509.091 189.133C508.799 188.821 508.404 188.646 507.992 188.644Z" fill="#E6E6E6"/>
<path d="M507.992 212.94H494.67C494.466 212.94 494.264 212.983 494.076 213.067C493.888 213.151 493.717 213.273 493.573 213.428C493.429 213.583 493.315 213.766 493.237 213.968C493.16 214.17 493.12 214.386 493.121 214.604V228.855C493.12 229.073 493.16 229.289 493.237 229.491C493.315 229.693 493.429 229.876 493.573 230.031C493.717 230.186 493.888 230.308 494.076 230.392C494.264 230.476 494.466 230.519 494.67 230.519H507.992C508.405 230.519 508.8 230.344 509.092 230.032C509.383 229.719 509.547 229.296 509.548 228.855V214.604C509.547 214.163 509.383 213.739 509.092 213.427C508.8 213.115 508.405 212.94 507.992 212.94Z" fill="#E6E6E6"/>
<path d="M201.801 423.05H201.43L201.747 423.007L201.801 423.05Z" fill="#2F2E41"/>
<path d="M169.928 157.374C192.5 157.374 210.799 137.791 210.799 113.635C210.799 89.4786 192.5 69.8959 169.928 69.8959C147.355 69.8959 129.057 89.4786 129.057 113.635C129.057 137.791 147.355 157.374 169.928 157.374Z" fill="#FFB6B6"/>
<path d="M205.72 81.5662C205.72 81.5662 216.409 59.6966 192.892 57.7085C192.892 57.7085 172.843 38.2452 152.407 54.1503C152.407 54.1503 141.261 54.1503 135.165 67.6492C135.165 67.6492 126.398 64.091 124.472 73.6136C124.472 73.6136 118.057 93.4951 124.472 111.388C130.887 129.282 133.018 131.27 133.018 131.27C133.018 131.27 122.476 93.7555 148.134 91.7673C173.792 89.7792 202.504 72.6196 204.642 94.4891C206.781 116.359 209.998 121.747 209.998 121.747C209.998 121.747 230.307 90.5129 205.72 81.5662Z" fill="#2F2E41"/>
<path d="M275.652 221.429L275.521 222.171L274.043 230.519L263.831 288.265L263.227 291.664L261.959 298.854L260.224 308.661L256.378 330.396L255.277 336.625L254.864 338.962L254.721 339.781L253.578 346.228L253.231 348.174L250.443 370.28L248.009 389.543L256.156 398.263L251.299 403.461L248.11 423.006L248.116 423.051H117.987C112.723 419.402 107.534 415.639 102.422 411.764L103.492 403.186C103.492 403.186 107.177 387.866 105.628 386.035C104.085 384.204 100.699 380.933 100.699 380.933L104.964 370.28L105.556 368.801L104.563 346.759L104.539 346.228L104.21 338.962L104.168 338.027L104.103 336.625L102.84 308.661L102.816 308.2L102.434 299.724L102.075 291.664L101.919 288.265L100.382 254.251L99.3408 231.153L98.4315 211.045L102.087 209.719L141.18 195.501L157.373 172.972L191.077 173.241L207.576 173.376L235.105 200.699L241.369 203.9L241.417 203.926L245.909 206.224L257.299 212.043L269.341 218.202L275.521 221.358L275.652 221.429Z" fill="#CACACA"/>
<path d="M161.729 357.432C159.259 358.456 156.61 358.888 153.967 358.698C151.324 358.507 148.753 357.699 146.434 356.33C144.114 354.961 142.104 353.064 140.544 350.774C138.983 348.483 137.911 345.854 137.403 343.072L73.6584 333.394L95.8179 306.569L152.954 319.872C157.377 319.268 161.854 320.422 165.536 323.114C169.218 325.807 171.849 329.851 172.93 334.481C174.012 339.111 173.469 344.004 171.405 348.234C169.34 352.464 165.897 355.737 161.729 357.432V357.432Z" fill="#FFB6B6"/>
<path d="M133.307 308.661C132.126 307.059 130.455 305.955 128.587 305.543L102.434 299.724L99.7476 299.129C98.1866 298.78 96.712 298.083 95.4203 297.082C94.1286 296.081 93.0489 294.8 92.2519 293.322C91.4251 291.771 90.9249 290.045 90.7863 288.265C90.6616 286.646 90.8427 285.018 91.3187 283.476L100.382 254.251L106.262 235.289C106.975 233.002 107.395 230.622 107.512 228.215C107.84 221.552 105.914 214.986 102.086 209.72C98.7217 205.09 94.0549 201.742 88.7754 200.17C83.4958 198.597 77.8837 198.884 72.7681 200.987C72.6185 201.045 72.463 201.109 72.3134 201.173C68.6448 202.741 65.367 205.2 62.7393 208.356C60.1116 211.513 58.2058 215.28 57.1727 219.361L50.7837 244.232L37.6051 295.505C36.2859 300.642 36.0193 306.024 36.8238 311.281C37.6282 316.539 39.4846 321.549 42.266 325.967C45.0473 330.386 48.6878 334.109 52.9385 336.882C57.1891 339.655 61.9494 341.413 66.8936 342.034L104.563 346.759L121.995 348.949C124.011 349.208 126.044 348.645 127.689 347.372C129.334 346.099 130.471 344.209 130.873 342.079C130.901 341.963 130.923 341.846 130.938 341.727L131.357 338.961L134.905 315.671L134.94 315.434C135.125 314.246 135.075 313.029 134.794 311.863C134.513 310.696 134.006 309.606 133.307 308.661Z" fill="#CACACA"/>
<path d="M202.332 358.179C204.912 358.82 207.592 358.847 210.183 358.26C212.774 357.673 215.214 356.484 217.329 354.779C219.445 353.074 221.185 350.893 222.428 348.39C223.671 345.886 224.386 343.122 224.522 340.291L286.355 321.09L260.882 297.877L206.07 319.67C201.611 319.739 197.331 321.557 194.041 324.778C190.75 328 188.679 332.401 188.218 337.147C187.757 341.894 188.939 346.657 191.541 350.533C194.142 354.409 197.982 357.13 202.332 358.179V358.179Z" fill="#FFB6B6"/>
<path d="M317.054 278.137L287.646 205.706C285.241 199.759 280.945 194.916 275.52 192.037C273.844 191.154 272.083 190.467 270.268 189.989C269.987 189.912 269.706 189.841 269.425 189.784C265.577 188.885 261.586 188.964 257.772 190.014C254.285 190.973 251.026 192.707 248.208 195.104C245.39 197.501 243.076 200.507 241.416 203.926C241.398 203.954 241.382 203.984 241.369 204.015C239.515 207.853 238.529 212.103 238.491 216.423C238.452 220.743 239.362 225.012 241.147 228.887L241.512 229.668L262.294 274.334C263.004 275.862 263.403 277.532 263.467 279.237C263.531 280.941 263.258 282.641 262.664 284.224C262.071 285.807 261.172 287.238 260.026 288.423C258.879 289.609 257.512 290.521 256.013 291.101L254.553 291.664L228.304 301.811C226.334 302.563 224.714 304.104 223.784 306.109C222.855 308.114 222.688 310.427 223.32 312.56L223.386 312.784L230.744 337.982C230.78 338.097 230.816 338.213 230.858 338.328C230.923 338.545 231.003 338.757 231.097 338.962C231.879 340.838 233.261 342.355 234.995 343.239C236.729 344.123 238.7 344.315 240.555 343.782L254.721 339.781L257.61 338.962L294.191 328.622C299.004 327.261 303.486 324.803 307.329 321.416C311.172 318.029 314.286 313.794 316.457 308.999C318.628 304.205 319.806 298.965 319.909 293.638C320.012 288.311 319.038 283.023 317.054 278.137L317.054 278.137Z" fill="#CACACA"/>
<path d="M27.603 338.962C36.08 350.026 45.2221 360.488 54.9713 370.28H325.346C327.951 370.284 330.448 371.394 332.289 373.366C334.13 375.338 335.166 378.01 335.168 380.798L335.557 454.119C352.19 445.941 367.767 435.499 381.901 423.051C385.825 419.6 389.628 416 393.309 412.251C395.72 409.805 398.073 407.3 400.368 404.735C417.575 385.552 431.508 363.291 441.537 338.962H27.603Z" fill="#3F3D56"/>
<path d="M400.368 404.735C398.077 407.302 395.724 409.807 393.309 412.251H335.755V404.735H400.368Z" fill="white"/>
<path d="M275.114 164.349C274.829 163.787 274.409 163.318 273.896 162.992C273.383 162.665 272.797 162.492 272.2 162.492H76.0822C75.203 162.495 74.3604 162.87 73.7392 163.536C73.1181 164.202 72.7689 165.105 72.7681 166.046V291.664H275.52V166.046C275.524 165.452 275.384 164.868 275.114 164.349Z" fill="#3F3D56"/>
<path d="M72.5905 288.263V303.765C72.5905 304.407 72.7088 305.044 72.9386 305.637C73.1684 306.231 73.5052 306.77 73.9298 307.225C74.3544 307.679 74.8585 308.04 75.4133 308.286C75.9681 308.532 76.5627 308.658 77.1632 308.658H151.998V339.251H151.004C150.926 339.251 150.848 339.267 150.776 339.299C150.704 339.331 150.639 339.378 150.583 339.437C150.528 339.496 150.485 339.566 150.455 339.643C150.425 339.72 150.41 339.803 150.41 339.886V342.014C150.41 342.098 150.425 342.18 150.455 342.258C150.485 342.335 150.528 342.405 150.583 342.464C150.639 342.523 150.704 342.57 150.776 342.602C150.848 342.634 150.926 342.65 151.004 342.65H197.46C197.538 342.65 197.615 342.634 197.687 342.602C197.759 342.57 197.825 342.523 197.88 342.464C197.935 342.405 197.979 342.335 198.009 342.258C198.038 342.18 198.054 342.098 198.054 342.014V339.886C198.054 339.803 198.038 339.72 198.009 339.643C197.979 339.566 197.935 339.496 197.88 339.437C197.825 339.378 197.759 339.331 197.687 339.299C197.615 339.267 197.538 339.251 197.46 339.251H196.466V308.658H271.3C271.901 308.658 272.495 308.532 273.05 308.286C273.605 308.04 274.109 307.679 274.534 307.225C274.958 306.77 275.295 306.231 275.525 305.637C275.755 305.044 275.873 304.407 275.873 303.765V288.263H72.5905Z" fill="#3F3D56"/>
<path d="M171.775 243.772C182.119 243.772 190.503 234.799 190.503 223.73C190.503 212.661 182.119 203.687 171.775 203.687C161.432 203.687 153.047 212.661 153.047 223.73C153.047 234.799 161.432 243.772 171.775 243.772Z" fill="#BF2554"/>
<path d="M219.492 111.245H216.501C216.501 87.0458 194.122 71.1882 171.545 71.1754C168.261 71.1652 164.985 71.5061 161.764 72.1933C158.139 72.968 154.376 73.8962 150.679 75.1062C136.101 79.8884 122.581 89.1328 122.581 111.245C122.578 115.539 123.089 119.817 124.101 123.972L121.205 124.779C120.132 120.359 119.589 115.811 119.59 111.245C119.59 91.9241 127.002 78.6529 139.804 70.7401C146.534 66.5788 154.747 63.8964 164.157 62.5904C168.073 62.0329 172.032 61.9042 175.972 62.2063C201.934 64.2037 219.492 85.5093 219.492 111.245Z" fill="#BF2554"/>
<path d="M224.475 113.018L223.297 103.697C223.006 101.343 221.946 99.1752 220.305 97.5769C219.252 96.535 217.991 95.763 216.618 95.3194C215.245 94.8758 213.795 94.7721 212.379 95.0162L210.507 95.2914C209.994 95.3636 209.501 95.544 209.054 95.822C208.607 96.1 208.216 96.4702 207.904 96.9111C207.59 97.3505 207.36 97.8523 207.227 98.3874C207.095 98.9225 207.063 99.4804 207.133 100.029L209.855 121.501C209.967 122.376 210.333 123.191 210.902 123.831C211.471 124.471 212.214 124.903 213.025 125.067C213.265 125.118 213.51 125.144 213.755 125.144C213.931 125.144 214.107 125.131 214.281 125.105L216.375 124.804C217.652 124.623 218.88 124.164 219.985 123.456C221.09 122.749 222.048 121.806 222.8 120.688C222.962 120.445 223.117 120.195 223.261 119.939C224.382 117.844 224.81 115.406 224.475 113.018Z" fill="#BF2554"/>
<path d="M209.298 95.682C208.749 95.9676 208.271 96.3889 207.904 96.9112C207.59 97.3506 207.36 97.8523 207.227 98.3874C207.095 98.9226 207.063 99.4804 207.133 100.029L209.855 121.501C209.967 122.376 210.333 123.191 210.902 123.831C211.471 124.471 212.214 124.903 213.025 125.067L209.298 95.682Z" fill="white"/>
<path d="M224.475 113.018L223.297 103.697C223.006 101.343 221.946 99.1752 220.305 97.5769L223.015 118.94C223.056 119.283 223.138 119.619 223.261 119.939C224.382 117.844 224.81 115.406 224.475 113.018Z" fill="#3F3D56"/>
<path d="M215.161 119.734C215.979 119.616 216.391 117.531 216.08 115.079C215.769 112.626 214.854 110.734 214.035 110.853C213.217 110.972 212.805 113.056 213.116 115.509C213.427 117.961 214.343 119.853 215.161 119.734Z" fill="#3F3D56"/>
<path d="M213.366 108.211C214.185 108.092 214.596 106.008 214.285 103.555C213.975 101.103 213.059 99.2108 212.241 99.3297C211.422 99.4485 211.011 101.533 211.322 103.985C211.632 106.438 212.548 108.33 213.366 108.211Z" fill="#3F3D56"/>
<path d="M224.732 112.692C225.551 112.573 225.962 110.489 225.651 108.036C225.341 105.584 224.425 103.692 223.607 103.811C222.788 103.93 222.377 106.014 222.688 108.467C222.998 110.919 223.914 112.811 224.732 112.692Z" fill="#3F3D56"/>
<path d="M171.545 71.1754C168.261 71.1651 164.985 71.5061 161.764 72.1933C158.139 72.9679 154.376 73.8962 150.679 75.1062C144.907 74.8053 140.659 73.2048 139.804 70.74C146.534 66.5788 154.747 63.8964 164.157 62.5904C168.073 62.0329 172.032 61.9042 175.972 62.2063C176.389 62.4679 176.75 62.8211 177.03 63.2426C177.311 63.6641 177.504 64.1444 177.599 64.6518C177.88 66.8797 175.505 69.2484 171.545 71.1754Z" fill="#3F3D56"/>
<path d="M133.355 133.46L128.749 112.967C128.585 112.228 128.22 111.557 127.701 111.039C127.181 110.52 126.53 110.178 125.83 110.054C125.632 110.021 125.432 110.004 125.231 110.003C124.949 110.004 124.668 110.041 124.394 110.112L122.611 110.573C120.316 111.167 118.335 112.711 117.102 114.867C115.87 117.022 115.487 119.613 116.037 122.071L118.101 131.264C118.572 133.428 119.694 135.367 121.295 136.782C121.555 137.007 121.826 137.214 122.109 137.403C123.112 138.076 124.23 138.527 125.398 138.729C126.566 138.931 127.761 138.881 128.91 138.581L130.687 138.12C131.157 138.003 131.599 137.783 131.985 137.474C132.56 137.026 132.997 136.405 133.241 135.69C133.485 134.975 133.524 134.199 133.355 133.46Z" fill="#BF2554"/>
<path d="M123.699 129.647C124.502 129.44 124.714 127.322 124.173 124.915C123.632 122.509 122.542 120.726 121.739 120.933C120.936 121.14 120.724 123.258 121.265 125.664C121.806 128.071 122.896 129.854 123.699 129.647Z" fill="#3F3D56"/>
<path d="M117.716 131.567C118.52 131.361 118.732 129.242 118.191 126.836C117.65 124.43 116.56 122.647 115.757 122.854C114.954 123.06 114.742 125.179 115.283 127.585C115.824 129.991 116.913 131.774 117.716 131.567Z" fill="#3F3D56"/>
<path d="M133.648 133.383L129.042 112.89C128.863 112.09 128.467 111.365 127.904 110.805C127.341 110.244 126.636 109.874 125.878 109.741L132.165 137.73C132.786 137.243 133.258 136.571 133.522 135.797C133.786 135.023 133.83 134.183 133.648 133.383Z" fill="white"/>
<path d="M117.078 118.012C116.951 117.442 116.712 116.907 116.378 116.443C115.73 118.238 115.611 120.202 116.037 122.071L118.101 131.264C118.572 133.428 119.694 135.367 121.295 136.782L117.078 118.012Z" fill="#3F3D56"/>
</g>
<defs>
<clipPath id="clip0_73_2">
<rect width="508.803" height="474.274" fill="white" transform="translate(0.744415 0.492065)"/>
</clipPath>
</defs>
</svg>
